{
  "asset": {
    "version": "2.0",
    "generator": "THREE.GLTFExporter r171"
  },
  "scenes": [
    {
      "name": "Scene",
      "nodes": [
        0,
        2
      ]
    }
  ],
  "scene": 0,
  "nodes": [
    {
      "name": "Headdddd.obj"
    },
    {
      "name": "Head",
      "mesh": 0
    },
    {
      "name": "centeredHead.obj",
      "children": [
        1
      ]
    }
  ],
  "bufferViews": [
    {
      "buffer": 0,
      "byteOffset": 0,
      "byteLength": 432,
      "target": 34962,
      "byteStride": 12
    },
    {
      "buffer": 0,
      "byteOffset": 432,
      "byteLength": 432,
      "target": 34962,
      "byteStride": 12
    },
    {
      "buffer": 0,
      "byteOffset": 864,
      "byteLength": 288,
      "target": 34962,
      "byteStride": 8
    }
  ],
  "buffers": [
    {
      "byteLength": 1152,
      "uri": "data:application/octet-stream;base64,"
    }
  ],
  "accessors": [
    {
      "bufferView": 0,
      "componentType": 5126,
      "count": 36,
      "max": [
        0.29263269901275635,
        0.34509730339050293,
        0.3179999887943268
      ],
      "min": [
        -0.33186739683151245,
        -0.275402694940567,
        -0.3075000047683716
      ],
      "type": "VEC3"
    },
    {
      "bufferView": 1,
      "componentType": 5126,
      "count": 36,
      "max": [
        0.9999997019767761,
        0.9999997019767761,
        1
      ],
      "min": [
        -1,
        0,
        -1
      ],
      "type": "VEC3"
    },
    {
      "bufferView": 2,
      "componentType": 5126,
      "count": 36,
      "max": [
        0.49989399313926697,
        1
      ],
      "min": [
        0.00027088820934295654,
        0.7502949237823486
      ],
      "type": "VEC2"
    }
  ],
  "materials": [
    {
      "pbrMetallicRoughness": {
        "metallicFactor": 0,
        "roughnessFactor": 1
      },
      "name": "Mat0"
    }
  ],
  "meshes": [
    {
      "primitives": [
        {
          "mode": 4,
          "attributes": {
            "POSITION": 0,
            "NORMAL": 1,
            "TEXCOORD_0": 2
          },
          "material": 0
        }
      ]
    }
  ]
}